<?xml version="1.0" encoding="utf-8"?>
<!-- Generator: Adobe Illustrator 23.0.0, SVG Export Plug-In . SVG Version: 6.00 Build 0)  -->
<svg version="1.1" id="Layer_1" xmlns="http://www.w3.org/2000/svg" xmlns:xlink="http://www.w3.org/1999/xlink" x="0px" y="0px"
	 viewBox="0 0 655 400" style="enable-background:new 0 0 655 400;" xml:space="preserve">
<style type="text/css">
	.st0{fill:#1E1E1E;}
</style>
<g>
	<path class="st0" d="M652.8,379.4c-0.4-4.7-3.1-8.2-6.4-11.4c-31.1-31-62.2-62.2-93.4-93.2c-2.8-2.8-2.8-4.3-0.4-7.4
		c27.1-35.7,38.4-76,33.1-120.4C574.2,51.6,483.1-13.7,388.8,5.4C312.7,20.9,257.2,89,257.2,166.9c-0.1,11.2,1.1,22.3,3.3,33.3
		c24.3,118.8,165.2,171.5,261.4,97.7c3.8-2.9,5.6-2.3,8.6,0.8c30.5,30.7,61.1,61.3,91.7,91.9c1.3,1.3,2.6,2.7,4.1,3.9
		c5.3,4.1,12.7,4.7,18.4,1.1C650.7,391.9,653.4,386.4,652.8,379.4z M421.8,298.9c-72.8-0.1-131.9-59.6-131.7-132.4
		C290.4,94,349.7,35,422.3,35.1c72.8,0.1,131.9,59.6,131.7,132.4C553.7,240.1,494.4,299.1,421.8,298.9z"/>
</g>
</svg>
